<svg width="50" height="50" viewBox="0 0 50 50" fill="none" xmlns="http://www.w3.org/2000/svg">
<path d="M25 43.75L21.9792 41.0416C18.4722 37.8819 15.5729 35.1562 13.2813 32.8646C10.9896 30.5729 9.16667 28.5156 7.8125 26.6927C6.45834 24.8698 5.51216 23.1944 4.97396 21.6666C4.43577 20.1389 4.16667 18.5764 4.16667 16.9791C4.16667 13.7153 5.26042 10.9896 7.44792 8.80206C9.63542 6.61456 12.3611 5.52081 15.625 5.52081C17.4306 5.52081 19.1493 5.90276 20.7813 6.66665C22.4132 7.43054 23.8194 8.50692 25 9.89581C26.1806 8.50692 27.5868 7.43054 29.2188 6.66665C30.8507 5.90276 32.5694 5.52081 34.375 5.52081C37.6389 5.52081 40.3646 6.61456 42.5521 8.80206C44.7396 10.9896 45.8333 13.7153 45.8333 16.9791C45.8333 18.5764 45.5642 20.1389 45.026 21.6666C44.4878 23.1944 43.5417 24.8698 42.1875 26.6927C40.8333 28.5156 39.0104 30.5729 36.7188 32.8646C34.4271 35.1562 31.5278 37.8819 28.0208 41.0416L25 43.75ZM25 38.125C28.3333 35.1389 31.0764 32.5781 33.2292 30.4427C35.3819 28.3073 37.0833 26.4496 38.3333 24.8698C39.5833 23.2899 40.4514 21.8837 40.9375 20.651C41.4236 19.4184 41.6667 18.1944 41.6667 16.9791C41.6667 14.8958 40.9722 13.1597 39.5833 11.7708C38.1944 10.3819 36.4583 9.68748 34.375 9.68748C32.7431 9.68748 31.2326 10.1475 29.8438 11.0677C28.4549 11.9878 27.5 13.1597 26.9792 14.5833H23.0208C22.5 13.1597 21.5451 11.9878 20.1563 11.0677C18.7674 10.1475 17.2569 9.68748 15.625 9.68748C13.5417 9.68748 11.8056 10.3819 10.4167 11.7708C9.02778 13.1597 8.33334 14.8958 8.33334 16.9791C8.33334 18.1944 8.57639 19.4184 9.0625 20.651C9.54862 21.8837 10.4167 23.2899 11.6667 24.8698C12.9167 26.4496 14.6181 28.3073 16.7708 30.4427C18.9236 32.5781 21.6667 35.1389 25 38.125Z" fill="#747474"/>
</svg>
