<svg width="50" height="50" viewBox="0 0 50 50" fill="none" xmlns="http://www.w3.org/2000/svg">
<path d="M8.21232 41C6.29695 41 4.81347 40.3238 3.76189 38.9714C2.71032 37.619 2.31597 35.9714 2.57887 34.0286L4.94492 16.8857C5.28292 14.6 6.28756 12.7143 7.95881 11.2286C9.63007 9.74286 11.5924 9 13.8458 9H36.1542C38.4076 9 40.3699 9.74286 42.0412 11.2286C43.7124 12.7143 44.7171 14.6 45.0551 16.8857L47.4211 34.0286C47.684 35.9714 47.2897 37.619 46.2381 38.9714C45.1865 40.3238 43.7031 41 41.7877 41C40.999 41 40.2667 40.8571 39.5906 40.5714C38.9146 40.2857 38.2949 39.8571 37.7316 39.2857L32.6615 34.1429H17.3385L12.2684 39.2857C11.7051 39.8571 11.0854 40.2857 10.4094 40.5714C9.73335 40.8571 9.001 41 8.21232 41ZM9.11367 36.0857L15.5358 29.5714H34.4642L40.8863 36.0857C40.9614 36.1619 41.2619 36.2762 41.7877 36.4286C42.2008 36.4286 42.5294 36.3048 42.7735 36.0571C43.0177 35.8095 43.1022 35.4762 43.027 35.0571L40.5483 17.4571C40.3981 16.3524 39.9099 15.4286 39.0836 14.6857C38.2574 13.9429 37.2809 13.5714 36.1542 13.5714H13.8458C12.7191 13.5714 11.7426 13.9429 10.9164 14.6857C10.0901 15.4286 9.6019 16.3524 9.45168 17.4571L6.97296 35.0571C6.89785 35.4762 6.98235 35.8095 7.22646 36.0571C7.47058 36.3048 7.7992 36.4286 8.21232 36.4286C8.28743 36.4286 8.58788 36.3143 9.11367 36.0857ZM36.2669 27.2857C36.9054 27.2857 37.4405 27.0667 37.8724 26.6286C38.3043 26.1905 38.5203 25.6476 38.5203 25C38.5203 24.3524 38.3043 23.8095 37.8724 23.3714C37.4405 22.9333 36.9054 22.7143 36.2669 22.7143C35.6284 22.7143 35.0933 22.9333 34.6614 23.3714C34.2295 23.8095 34.0135 24.3524 34.0135 25C34.0135 25.6476 34.2295 26.1905 34.6614 26.6286C35.0933 27.0667 35.6284 27.2857 36.2669 27.2857ZM31.7601 20.4286C32.3986 20.4286 32.9338 20.2095 33.3657 19.7714C33.7976 19.3333 34.0135 18.7905 34.0135 18.1429C34.0135 17.4952 33.7976 16.9524 33.3657 16.5143C32.9338 16.0762 32.3986 15.8571 31.7601 15.8571C31.1217 15.8571 30.5865 16.0762 30.1546 16.5143C29.7227 16.9524 29.5068 17.4952 29.5068 18.1429C29.5068 18.7905 29.7227 19.3333 30.1546 19.7714C30.5865 20.2095 31.1217 20.4286 31.7601 20.4286ZM15.4231 27.2857H18.8032V23.2857H22.7466V19.8571H18.8032V15.8571H15.4231V19.8571H11.4797V23.2857H15.4231V27.2857Z" fill="#747474"/>
</svg>
