<svg width="50" height="50" viewBox="0 0 50 50" fill="none" xmlns="http://www.w3.org/2000/svg">
<path d="M12.5 39.5834H18.75V29.1667C18.75 28.5764 18.9497 28.0816 19.349 27.6823C19.7483 27.283 20.2431 27.0834 20.8333 27.0834H29.1667C29.7569 27.0834 30.2517 27.283 30.651 27.6823C31.0503 28.0816 31.25 28.5764 31.25 29.1667V39.5834H37.5V20.8334L25 11.4584L12.5 20.8334V39.5834ZM8.33333 39.5834V20.8334C8.33333 20.1736 8.4809 19.5486 8.77604 18.9584C9.07118 18.3681 9.47917 17.882 10 17.5L22.5 8.12502C23.2292 7.56946 24.0625 7.29169 25 7.29169C25.9375 7.29169 26.7708 7.56946 27.5 8.12502L40 17.5C40.5208 17.882 40.9288 18.3681 41.224 18.9584C41.5191 19.5486 41.6667 20.1736 41.6667 20.8334V39.5834C41.6667 40.7292 41.2587 41.7101 40.4427 42.5261C39.6267 43.342 38.6458 43.75 37.5 43.75H29.1667C28.5764 43.75 28.0816 43.5504 27.6823 43.1511C27.283 42.7518 27.0833 42.257 27.0833 41.6667V31.25H22.9167V41.6667C22.9167 42.257 22.717 42.7518 22.3177 43.1511C21.9184 43.5504 21.4236 43.75 20.8333 43.75H12.5C11.3542 43.75 10.3733 43.342 9.55729 42.5261C8.74132 41.7101 8.33333 40.7292 8.33333 39.5834Z" fill="#747474"/>
</svg>
